<?xml version="1.0" encoding="utf-8"?>
<svg xmlns="http://www.w3.org/2000/svg" style="margin: auto; background: rgb(255, 255, 255) none repeat scroll 0% 0%; display: block; shape-rendering: auto;" width="280" height="250" preserveAspectRatio="xMidYMid">
<style type="text/css">
  text {
    text-anchor: middle; font-size: 79px; opacity: 0;
  }
</style>
<g style="transform-origin: 140px 125px 0px; transform: scale(1.29508);">
<g transform="translate(140,125)">
  <g transform="translate(0,0)"><g class="path" style="transform: scale(0.91); transform-origin: -74.9733px -4.44933px 0px; animation: 1s linear -0.528s infinite normal forwards running breath-f67fc538-ef5c-4086-a06e-c09eada15608;"><path d="M51.56 0L36.16 0L36.16-2.62L39.41-2.86L39.41-2.86Q40.06-2.92 40.40-3.34L40.40-3.34L40.40-3.34Q40.75-3.75 40.75-4.20L40.75-4.20L40.75-37.83L26.72 0L23.68 0L10.13-37.26L10.13-4.20L10.13-4.20Q10.13-3.75 10.47-3.34L10.47-3.34L10.47-3.34Q10.81-2.92 11.47-2.86L11.47-2.86L14.95-2.62L14.95 0L1.76 0L1.76-2.62L5.24-2.86L5.24-2.86Q5.90-2.92 6.21-3.34L6.21-3.34L6.21-3.34Q6.52-3.75 6.52-4.20L6.52-4.20L6.52-36.73L6.52-36.73Q6.52-37.17 6.21-37.59L6.21-37.59L6.21-37.59Q5.90-38.01 5.24-38.07L5.24-38.07L1.76-38.30L1.76-40.92L15.43-40.92L15.43-39.29L26.48-9.32L37.53-39.11L37.53-40.92L51.56-40.92L51.56-38.30L48.25-38.07L48.25-38.07Q47.60-38.01 47.25-37.59L47.25-37.59L47.25-37.59Q46.91-37.17 46.91-36.73L46.91-36.73L46.91-4.20L46.91-4.20Q46.91-3.75 47.25-3.34L47.25-3.34L47.25-3.34Q47.60-2.92 48.25-2.86L48.25-2.86L51.56-2.62L51.56 0" fill="#000000" stroke="none" stroke-width="none" transform="translate(-101.63334655761719,16.01066705322265)" style="fill: rgb(0, 0, 0);"></path></g><g class="path" style="transform: scale(0.91); transform-origin: -27.6483px -4.94433px 0px; animation: 1s linear -0.396s infinite normal forwards running breath-f67fc538-ef5c-4086-a06e-c09eada15608;"><path d="M94.24 0L79.73 0L79.73-2.62L83.25-2.92L83.25-2.92Q83.49-2.92 83.70-3.23L83.70-3.23L83.70-3.23Q83.90-3.54 83.90-3.81L83.90-3.81L83.90-3.81Q83.90-3.93 83.88-3.96L83.88-3.96L79.68-15.13L65.59-15.13L61.54-4.14L61.54-4.14Q61.51-4.08 61.51-3.96L61.51-3.96L61.51-3.96Q61.51-3.60 61.82-3.26L61.82-3.26L61.82-3.26Q62.13-2.92 62.40-2.92L62.40-2.92L66.00-2.62L66.00 0L53.73 0L53.73-2.62L57.28-3.37L71.48-41.91L76.07-41.91L90.22-4.26L90.22-4.26Q90.43-3.63 90.62-3.43L90.62-3.43L90.62-3.43Q90.81-3.22 91.50-3.10L91.50-3.10L94.24-2.62L94.24 0zM78.57-18.05L72.59-34.04L66.66-18.05L78.57-18.05" fill="#000000" stroke="none" stroke-width="none" transform="translate(-101.63334655761719,16.01066705322265)" style="fill: rgb(0, 0, 0);"></path></g><g class="path" style="transform: scale(0.91); transform-origin: 10.1367px -4.44933px 0px; animation: 1s linear -0.264s infinite normal forwards running breath-f67fc538-ef5c-4086-a06e-c09eada15608;"><path d="M127.48-28.62L127.48-28.62L127.48-28.62Q127.48-25.26 126.24-22.77L126.24-22.77L126.24-22.77Q125.01-20.28 122.88-18.62L122.88-18.62L122.88-18.62Q120.75-16.95 117.87-16.13L117.87-16.13L117.87-16.13Q115.00-15.31 111.72-15.31L111.72-15.31L111.55-15.31L111.55-15.31Q110.95-15.31 110.25-15.34L110.25-15.34L110.25-15.34Q109.55-15.37 108.91-15.41L108.91-15.41L108.91-15.41Q108.27-15.46 107.81-15.49L107.81-15.49L107.81-15.49Q107.35-15.52 107.23-15.55L107.23-15.55L107.23-4.20L107.23-4.20Q107.23-3.75 107.54-3.34L107.54-3.34L107.54-3.34Q107.85-2.92 108.51-2.86L108.51-2.86L112.53-2.62L112.53 0L96.50 0L96.50-2.62L99.72-2.86L99.72-2.86Q100.38-2.92 100.72-3.34L100.72-3.34L100.72-3.34Q101.06-3.75 101.06-4.20L101.06-4.20L101.06-36.73L101.06-36.73Q101.06-37.17 100.72-37.59L100.72-37.59L100.72-37.59Q100.38-38.01 99.72-38.07L99.72-38.07L96.06-38.30L96.06-40.92L110.65-40.92L110.65-40.92Q114.97-40.92 118.14-40.27L118.14-40.27L118.14-40.27Q121.31-39.61 123.39-38.15L123.39-38.15L123.39-38.15Q125.46-36.70 126.47-34.36L126.47-34.36L126.47-34.36Q127.48-32.02 127.48-28.62zM121.14-28.53L121.14-28.53L121.14-28.53Q121.14-30.77 120.54-32.51L120.54-32.51L120.54-32.51Q119.94-34.25 118.65-35.46L118.65-35.46L118.65-35.46Q117.35-36.67 115.30-37.31L115.30-37.31L115.30-37.31Q113.24-37.95 110.32-37.95L110.32-37.95L110.32-37.95Q109.91-37.95 109.37-37.93L109.37-37.93L109.37-37.93Q108.83-37.92 108.36-37.92L108.36-37.92L108.36-37.92Q107.82-37.89 107.23-37.89L107.23-37.89L107.23-18.68L107.23-18.68Q107.29-18.68 107.67-18.63L107.67-18.63L107.67-18.63Q108.06-18.59 108.57-18.51L108.57-18.51L108.57-18.51Q109.07-18.44 109.64-18.39L109.64-18.39L109.64-18.39Q110.21-18.35 110.65-18.35L110.65-18.35L110.83-18.35L110.83-18.35Q113.18-18.35 115.09-18.96L115.09-18.96L115.09-18.96Q117.00-19.57 118.34-20.82L118.34-20.82L118.34-20.82Q119.68-22.07 120.41-23.99L120.41-23.99L120.41-23.99Q121.14-25.91 121.14-28.53" fill="#000000" stroke="none" stroke-width="none" transform="translate(-101.63334655761719,16.01066705322265)" style="fill: rgb(0, 0, 0);"></path></g><g class="path" style="transform: scale(0.91); transform-origin: 46.0117px -4.44933px 0px; animation: 1s linear -0.132s infinite normal forwards running breath-f67fc538-ef5c-4086-a06e-c09eada15608;"><path d="M163.46 0L131.83 0L131.83-2.62L134.99-2.86L134.99-2.86Q135.64-2.92 135.98-3.34L135.98-3.34L135.98-3.34Q136.33-3.75 136.33-4.20L136.33-4.20L136.33-36.73L136.33-36.73Q136.33-37.17 135.98-37.59L135.98-37.59L135.98-37.59Q135.64-38.01 134.99-38.07L134.99-38.07L131.83-38.30L131.83-40.92L161.47-40.92L161.47-31.84L157.80-31.84L156.88-36.84L156.88-36.84Q156.82-37.29 156.51-37.65L156.51-37.65L156.51-37.65Q156.19-38.01 155.78-38.01L155.78-38.01L142.55-38.01L142.55-22.82L151.70-22.82L151.70-22.82Q152.11-22.82 152.46-23.17L152.46-23.17L152.46-23.17Q152.80-23.53 152.80-23.86L152.80-23.86L153.42-28.06L156.52-28.06L156.52-14.45L153.42-14.45L152.80-18.68L152.80-18.68Q152.80-19.00 152.44-19.39L152.44-19.39L152.44-19.39Q152.08-19.78 151.70-19.78L151.70-19.78L142.55-19.78L142.55-2.98L157.98-2.98L157.98-2.98Q158.37-2.98 158.70-3.40L158.70-3.40L158.70-3.40Q159.02-3.81 159.08-4.14L159.08-4.14L160.18-10.19L163.46-10.19L163.46 0" fill="#000000" stroke="none" stroke-width="none" transform="translate(-101.63334655761719,16.01066705322265)" style="fill: rgb(0, 0, 0);"></path></g><g class="path" style="transform: scale(0.91); transform-origin: 84.5667px -3.95933px 0px; animation: 1s linear 0s infinite normal forwards running breath-f67fc538-ef5c-4086-a06e-c09eada15608;"><path d="M205.01-2.56L205.01 0.18L205.01 0.18Q204.80 0.21 204.42 0.33L204.42 0.33L204.42 0.33Q204.03 0.45 203.49 0.60L203.49 0.60L203.49 0.60Q202.96 0.74 202.32 0.86L202.32 0.86L202.32 0.86Q201.68 0.98 200.99 0.98L200.99 0.98L200.99 0.98Q198.25 0.98 196.55 0.16L196.55 0.16L196.55 0.16Q194.85-0.66 193.80-2.01L193.80-2.01L193.80-2.01Q192.74-3.37 192.14-5.09L192.14-5.09L192.14-5.09Q191.55-6.82 191.04-8.62L191.04-8.62L191.04-8.62Q190.54-10.42 189.93-12.15L189.93-12.15L189.93-12.15Q189.31-13.88 188.21-15.24L188.21-15.24L188.21-15.24Q187.11-16.59 185.35-17.41L185.35-17.41L185.35-17.41Q183.60-18.23 180.80-18.23L180.80-18.23L180.80-18.23Q180.32-18.23 179.84-18.21L179.84-18.21L179.84-18.21Q179.37-18.20 178.99-18.17L178.99-18.17L178.99-18.17Q178.62-18.14 178.35-18.12L178.35-18.12L178.35-18.12Q178.09-18.11 178.06-18.11L178.06-18.11L178.06-4.20L178.06-4.20Q178.06-3.75 178.37-3.34L178.37-3.34L178.37-3.34Q178.68-2.92 179.34-2.86L179.34-2.86L182.55-2.62L182.55 0L167.39 0L167.39-2.62L170.55-2.86L170.55-2.86Q171.21-2.92 171.55-3.34L171.55-3.34L171.55-3.34Q171.89-3.75 171.89-4.20L171.89-4.20L171.89-36.73L171.89-36.73Q171.89-37.17 171.55-37.59L171.55-37.59L171.55-37.59Q171.21-38.01 170.55-38.07L170.55-38.07L167.39-38.30L167.39-40.92L183.30-40.92L183.30-40.92Q186.78-40.92 189.55-40.36L189.55-40.36L189.55-40.36Q192.32-39.79 194.26-38.51L194.26-38.51L194.26-38.51Q196.19-37.23 197.22-35.16L197.22-35.16L197.22-35.16Q198.25-33.09 198.25-30.08L198.25-30.08L198.25-30.08Q198.25-27.67 197.42-25.94L197.42-25.94L197.42-25.94Q196.58-24.22 195.20-23.02L195.20-23.02L195.20-23.02Q193.81-21.83 192.00-21.09L192.00-21.09L192.00-21.09Q190.18-20.34 188.24-19.90L188.24-19.90L188.24-19.90Q190.71-19.30 192.20-18.24L192.20-18.24L192.20-18.24Q193.69-17.19 194.56-15.85L194.56-15.85L194.56-15.85Q195.42-14.51 195.84-13.00L195.84-13.00L195.84-13.00Q196.25-11.50 196.58-10.02L196.58-10.02L196.58-10.02Q196.91-8.55 197.33-7.21L197.33-7.21L197.33-7.21Q197.74-5.87 198.62-4.83L198.62-4.83L198.62-4.83Q199.50-3.78 201.01-3.17L201.01-3.17L201.01-3.17Q202.51-2.56 205.01-2.56L205.01-2.56zM191.61-29.81L191.61-29.81L191.61-29.81Q191.61-31.78 191.01-33.28L191.01-33.28L191.01-33.28Q190.42-34.79 189.12-35.83L189.12-35.83L189.12-35.83Q187.83-36.87 185.78-37.41L185.78-37.41L185.78-37.41Q183.74-37.95 180.86-37.95L180.86-37.95L178.06-37.95L178.06-21.24L178.06-21.24Q178.12-21.24 178.47-21.22L178.47-21.22L178.47-21.22Q178.83-21.21 179.29-21.21L179.29-21.21L179.29-21.21Q179.75-21.21 180.24-21.19L180.24-21.19L180.24-21.19Q180.74-21.18 181.09-21.18L181.09-21.18L181.09-21.18Q183.63-21.18 185.59-21.61L185.59-21.61L185.59-21.61Q187.56-22.04 188.90-23.05L188.90-23.05L188.90-23.05Q190.24-24.07 190.92-25.72L190.92-25.72L190.92-25.72Q191.61-27.37 191.61-29.81" fill="#000000" stroke="none" stroke-width="none" transform="translate(-101.63334655761719,16.01066705322265)" style="fill: rgb(0, 0, 0);"></path></g></g>
</g>
</g>
<style id="breath-f67fc538-ef5c-4086-a06e-c09eada15608" data-anikit="">@keyframes breath-f67fc538-ef5c-4086-a06e-c09eada15608
{
  0% {
    animation-timing-function: cubic-bezier(0.9647,0.2413,-0.0705,0.7911);
    transform: scale(0.9099999999999999);
  }
  51% {
    animation-timing-function: cubic-bezier(0.9226,0.2631,-0.0308,0.7628);
    transform: scale(1.02994);
  }
  100% {
    transform: scale(0.9099999999999999);
  }
}</style></svg>